#!OML:ASF F:\VICON\USERDATA\INSTALL\rory3\rory3.ASF
:FULLY-SPECIFIED
:DEGREES
159
root -0.7187742459472387 17.399016850294927 24.9438547054565 2.9831749893107236 -4.523300573677537 -2.90141899545829
lfemur -21.492670610654386 5.1767297226448274 -18.905126071230104
ltibia 69.96084956571849
lfoot 4.493233582087487 -11.017954202299913
ltoes -6.760319001078207
rfemur -16.32743310506675 5.407546586350538 30.523919746552743
rtibia 86.76541545607839
rfoot 0.5793081136809501 -8.681585897363398
rtoes 11.65052204118468
lowerback 15.524746149223567 1.4226745526281506 2.014827167349253
upperback -0.1869531746991926 2.4586297499600596 1.3334296671627666
thorax -10.34513103977463 1.1701506607415688 0.18583271992814415
lowerneck -19.40368770343579 -4.345092642107858 -2.1042164233305782
upperneck 9.097295436107295 -5.964998495983588 4.707240880716718
head 6.5335783192713315 -2.495018514763672 1.1498023822224779
lclavicle 1.1245391003507409e-15 -1.4766016290020895e-15
lhumerus -46.05120626334482 -13.366114490997047 97.0874310121795
lradius 110.6361983821775
lwrist 30.681911945934527
lhand -30.23343199890904 0.6544876931711259
lfingers 7.125019999999998
lthumb -3.9260571544284657 29.839082417144194
rclavicle 1.1245391004158883e-15 -1.4766016289588078e-15
rhumerus -52.398364306309674 10.138394445789313 -98.54062547667554
rradius 116.93598150762425
rwrist -13.259359935202404
rhand -18.58594960383085 37.44232552270662
rfingers 7.125019999999998
rthumb 6.093338895408564 8.615235250893441
160
root -0.7096883501373189 17.427489061162728 25.008083524375635 2.9974574065832074 -4.458067834559231 -2.885780246042275
lfemur -21.643568651831792 5.092726900757731 -19.01126034152989
ltibia 70.26708066237694
lfoot 5.429321555044758 -9.70711290295458
ltoes -5.722805941914059
rfemur -16.10487866755005 5.347737666003516 30.46018726484084
rtibia 86.82952910507683
rfoot 0.10225985932112192 -8.631800142304098
rtoes 10.281739651638672
lowerback 15.38511078266662 1.4245273614688179 2.0490888659921866
upperback -0.24621314426330188 2.497263466233263 1.3819574663874585
thorax -10.315936905923214 1.195322316658305 0.16579816724102592
lowerneck -19.197951955737846 -4.360695065926508 -2.109517328185908
upperneck 9.200015133941651 -5.9992556881591605 4.728592998605136
head 6.537824284957889 -2.51326161850007 1.164195508857214
lclavicle 1.1245391003490409e-15 -1.4766016290032927e-15
lhumerus -46.51967267187486 -13.2578231363808 97.19269637875166
lradius 110.36592360583263
lwrist 30.506502227223894
lhand -30.213673786682193 0.5310607957221124
lfingers 7.125019999999998
lthumb -3.9872033796392206 29.79725995346561
rclavicle 1.124539100415812e-15 -1.4766016289588693e-15
rhumerus -52.56120347728333 10.038539832712544 -98.53966650433223
rradius 117.12851391071261
rwrist -13.670700617891274
rhand -18.58579869157742 37.76419615013601
rfingers 7.125019999999998
rthumb 6.062795676030137 8.871950221778391
161
root -0.7033868493553841 17.447326976078937 24.966383624448063 2.996723332164713 -4.467294808422958 -2.9020423845314633
lfemur -21.833732948704558 5.043825539759288 -19.041040127094075
ltibia 70.53898768621323
lfoot 5.763310560601958 -8.941860440136141
ltoes -8.249214150822736
rfemur -15.954491507317188 5.319928442849692 30.438701143716916
rtibia 86.90105127617042
rfoot -0.5398448040700266 -8.729017630907446
rtoes 8.820614022709691
lowerback 15.295297909462905 1.4372277323479485 2.0908457000160663
upperback -0.307471674859395 2.528101541036766 1.4218015651050815
thorax -10.28345233955744 1.2047251241721437 0.11465624531150892
lowerneck -19.039742798513288 -4.372546662476585 -2.114025917574047
upperneck 9.341399228244642 -6.02269654559721 4.744197062716387
head 6.545568128192621 -2.5264012351111966 1.1742119288550301
lclavicle 1.1245391003464291e-15 -1.4766016290050907e-15
lhumerus -47.0929614099191 -13.22555923421395 97.27144772939725
lradius 110.10509309654554
lwrist 30.25221847719545
lhand -30.240917703636896 0.4378226452608889
lfingers 7.125019999999998
lthumb -3.979270096840362 29.89784950928271
rclavicle 1.1245391004147628e-15 -1.4766016289595253e-15
rhumerus -52.726855446604944 9.946138343131189 -98.55685247556463
rradius 117.32117414853352
rwrist -13.75537963524576
rhand -18.662165818677405 37.893355440453746
rfingers 7.125019999999998
rthumb 5.999585948171897 9.019437612153553
162
root -0.6977594144434989 17.465222105811673 25.00890728025354 2.9887741087856763 -4.488250803204517 -2.9157197593966875
lfemur -22.02355055668986 5.009154305485838 -19.07724220710697
ltibia 70.71245771035464
lfoot 4.987165206814545 -9.128166468609653
ltoes -13.006343261189958
rfemur -15.832142975874444 5.318920296865897 30.439100343874035
rtibia 86.96972450321134
rfoot -1.0373029955128605 -8.868805272221064
rtoes 6.86407608201684
lowerback 15.22448288893189 1.448973859753186 2.128674498209726
upperback -0.3520048456798507 2.5446717853011167 1.4544987476036648
thorax -10.174224630464913 1.2273125140484826 0.08520073441066611
lowerneck -19.025669872197874 -4.388804441905106 -2.1110258445363783
upperneck 9.459701972602879 -6.0680703042737845 4.751359982513639
head 6.611008107639276 -2.5410833119974034 1.1743256729756952
lclavicle 1.1245391003459063e-15 -1.4766016290054502e-15
lhumerus -47.63377140372318 -13.301553446007143 97.28340538789665
lradius 109.8191618727495
lwrist 29.617134910139548
lhand -30.491769708088846 0.13358944801564526
lfingers 7.125019999999998
lthumb -4.073979120780878 29.891186641567334
rclavicle 1.1245391004170016e-15 -1.47660162895785e-15
rhumerus -52.932086062539916 9.84876975585719 -98.61072504625598
rradius 117.50665696874898
rwrist -13.352653345171218
rhand -18.795802326165877 37.905421589476155
rfingers 7.125019999999998
rthumb 5.875812469894127 8.99213919336745
163
root -0.6932579196197324 17.48003763680697 24.990830516950425 2.9677979945705237 -4.517723571208269 -2.946698254412914
lfemur -22.21767293216276 4.982210017583367 -19.09713002459858
ltibia 70.8039396956756
lfoot 4.472345143929039 -9.378104838860994
ltoes -16.791984563763563
rfemur -15.735964979690522 5.307389987848234 30.46477656239936
rtibia 87.02891719670025
rfoot -1.1226013216137827 -8.879321666615734
rtoes 6.5674104962337
lowerback 15.190055188509689 1.4595610937723031 2.181272593766746
upperback -0.389802651154048 2.5714272092492703 1.4841506382218794
thorax -10.18642784542786 1.2266756850227294 -0.005190223360870161
lowerneck -18.842005671340402 -4.419423242502651 -2.0960944750051267
upperneck 9.441361630057083 -6.105067388707751 4.754842061125705
head 6.579693060436168 -2.5674938310505917 1.1743612811013509
lclavicle 1.1245391003425921e-15 -1.476601629007986e-15
lhumerus -48.099519699294405 -13.418470729291258 97.28236404793311
lradius 109.49778055537112
lwrist 28.91783221682415
lhand -30.665605491323763 -0.05384310101775813
lfingers 7.125019999999998
lthumb -3.8952426586577493 30.03837557801317
rclavicle 1.1245391004155103e-15 -1.4766016289590764e-15
rhumerus -53.13637358517764 9.759952803701147 -98.64893852887784
rradius 117.66806873269408
rwrist -13.17814406845902
rhand -18.88808791232846 38.00353441467806
rfingers 7.125019999999998
rthumb 5.765210216119161 9.028756497442673
164
root -0.6890787052316896 17.49439762697536 25.058489392034446 2.9347401879405712 -4.52596734412867 -2.972413911611219
lfemur -22.407065305620318 4.9421701822464765 -19.121772089728978
ltibia 70.81155695653
lfoot 5.61485724636681 -8.613196134757763
ltoes -15.973189757985708
rfemur -15.62241593613821 5.255797727123968 30.48615645255614
rtibia 87.06176365166131
rfoot -1.440346870618947 -9.112389094748018
rtoes 7.531078727313059
lowerback 15.160161673262458 1.4658835335656122 2.2285485338209416
upperback -0.4453829060432788 2.6148640771393037 1.512691194435146
thorax -10.216823149935763 1.2416335549701123 -0.09931541553187262
lowerneck -18.58179539003288 -4.460624261695112 -2.1162916164097654
upperneck 9.37894760417619 -6.165109799809484 4.788547477339194
head 6.516124780127985 -2.5997140038227364 1.1915990982544025
lclavicle 1.1245391003428312e-15 -1.476601629007857e-15
lhumerus -48.414952616711965 -13.492577484893872 97.37900480816315
lradius 109.13214367768131
lwrist 28.66986643356204
lhand -30.33487674059322 0.30409186946388894
lfingers 7.125019999999998
lthumb -3.506516531249101 30.106031785184832
rclavicle 1.1245391004131563e-15 -1.4766016289608517e-15
rhumerus -53.329726815472256 9.697728805758835 -98.66247016082916
rradius 117.8401473903596
rwrist -13.014679209082436
rhand -18.942780490329714 38.145720909473205
rfingers 7.125019999999998
rthumb 5.703330116005775 9.153052688990098
165
root -0.6864598925921864 17.50573322502454 25.063777585865754 2.8924963600412483 -4.544204733124997 -3.0139358863809393
lfemur -22.593098298377623 4.907720559642204 -19.11672086732416
ltibia 70.75379728245444
lfoot 6.648045067816665 -7.921100693161697
ltoes -15.815975374736006
rfemur -15.534398633975236 5.215470388357077 30.53252745677735
rtibia 87.08857912045913
rfoot -1.458777262027263 -9.226161977183018
rtoes 5.126505253963499
lowerback 15.152677951716363 1.4734233532250052 2.289650372612263
upperback -0.47701401865319953 2.640933074502189 1.5340897433017817
thorax -10.19784800330532 1.249019126502526 -0.1808071164349797
lowerneck -18.39887304707113 -4.512680165959199 -2.1117877035068013
upperneck 9.308948446579581 -6.242294950818555 4.828481891892739
head 6.436298906119068 -2.644853713998093 1.2127862804478522
lclavicle 1.124539100341402e-15 -1.4766016290088458e-15
lhumerus -48.48817828522142 -13.539334050186401 97.4887666892807
lradius 108.70833342549469
lwrist 28.603355186496007
lhand -30.135988215104728 0.42555228243140597
lfingers 7.125019999999998
lthumb -3.476413202226545 29.89047667925323
rclavicle 1.1245391004138562e-15 -1.4766016289602672e-15
rhumerus -53.477186845227294 9.659878322690096 -98.64617965906506
rradius 117.99317453056946
rwrist -13.04536903522716
rhand -18.933920998479042 38.39139112634582
rfingers 7.125019999999998
rthumb 5.691152098885281 9.378546211188208
